PathFileType	4	(X/Y/Z)	C:/Users/opensim2020/Desktop/walking_exp_matlab/subject02_walking15_straight_02.trc	
DataRate	CameraRate	NumFrames	NumMarkers	Units	OrigDataRate	OrigDataStartFrame	OrigNumFrames	
100.00	100.00	5	42	mm	100.00	905	142	
Frame#	Time	LFHD			RFHD			LBHD			RBHD			C7			T10			CLAV			STRN			RBAK			LSHO			LUPA			LELB			LFRM			LWRA			LWRB			LFIN			RSHO			RUPA			RELB			RFRM			RWRA			RWRB			RFIN			LASI			RASI			LPSI			RPSI			LTHI			LKNE			LTIB			LANK			LHEE			LTOE			RTHI			RKNE			RTIB			RANK			RHEE			RTOE			*39			*40			*41			
		X1	Y1	Z1	X2	Y2	Z2	X3	Y3	Z3	X4	Y4	Z4	X5	Y5	Z5	X6	Y6	Z6	X7	Y7	Z7	X8	Y8	Z8	X9	Y9	Z9	X10	Y10	Z10	X11	Y11	Z11	X12	Y12	Z12	X13	Y13	Z13	X14	Y14	Z14	X15	Y15	Z15	X16	Y16	Z16	X17	Y17	Z17	X18	Y18	Z18	X19	Y19	Z19	X20	Y20	Z20	X21	Y21	Z21	X22	Y22	Z22	X23	Y23	Z23	X24	Y24	Z24	X25	Y25	Z25	X26	Y26	Z26	X27	Y27	Z27	X28	Y28	Z28	X29	Y29	Z29	X30	Y30	Z30	X31	Y31	Z31	X32	Y32	Z32	X33	Y33	Z33	X34	Y34	Z34	X35	Y35	Z35	X36	Y36	Z36	X37	Y37	Z37	X38	Y38	Z38	X39	Y39	Z39	X40	Y40	Z40	X41	Y41	Z41	X42	Y42	Z42	

36	0.350	-980.88446	498.46472	1734.66455	-1124.98694	498.30862	1724.79102	-976.28503	623.24365	1650.12854	-1120.44592	635.11798	1637.98511	-1053.34204	671.22583	1516.02026	-1070.03027	728.98462	1246.41650	-1042.89368	530.54651	1447.41882	-1058.99951	483.01968	1273.62793	-1126.68713	730.03113	1350.27869	-874.28864	600.53015	1486.03271	-779.08691	657.94049	1305.16003	-744.30450	696.15222	1176.32190	-710.24878	720.25757	1049.64978	-719.33087	698.19556	910.50616	-688.69763	742.22589	929.77039	-674.49060	739.35535	864.40771	-1232.59949	598.35394	1492.97852	-1342.35400	580.41888	1318.61108	-1378.62708	514.95605	1186.56287	-1395.17798	429.08618	1100.33411	-1372.40833	324.62503	1017.43054	-1409.25781	359.17117	991.60199	-1411.30237	294.10382	962.29285	-943.82422	508.65924	977.02832	-1201.48706	518.51178	964.88794	-1017.20471	718.65747	1026.31665	-1130.57642	726.45850	1031.86072	-885.12677	489.73376	679.60425	-926.50769	441.05994	489.49536	-940.74915	448.11472	295.37491	-975.06378	382.22433	81.30913	-1034.49463	400.52280	50.84710	-943.08569	230.96532	78.45021	-1262.61877	659.27374	673.61853	-1225.89343	715.64966	468.71494	-1238.06360	799.77478	300.21732	-1207.22424	859.03198	112.95190	-1154.71851	904.79333	62.88745	-1217.89429	714.72736	41.41263	-1066.80200	605.34607	1797.43433	-3357.50977	2846.02563	1034.38867			 
37	0.360	-980.97668	484.52954	1732.56555	-1125.14404	484.33032	1722.52759	-976.45947	609.28418	1648.03430	-1119.80322	620.95709	1635.43237	-1053.25647	657.26733	1513.58569	-1069.50073	714.75757	1244.04419	-1042.76489	516.24609	1445.06519	-1059.08264	468.63083	1271.29797	-1126.30908	715.85736	1347.83557	-874.10651	586.46216	1483.50830	-779.42413	645.59650	1303.03259	-745.16205	685.94751	1175.48096	-709.15656	715.17090	1050.75073	-714.02429	698.45679	910.83105	-685.07343	742.26868	932.57825	-669.11957	742.25037	867.57495	-1232.51196	583.81714	1490.56555	-1341.97034	564.44330	1316.68921	-1379.32642	496.92368	1185.92273	-1395.32019	408.56650	1102.00793	-1371.72961	302.02155	1022.27429	-1408.74634	335.55051	995.31409	-1410.55847	269.64618	968.30194	-943.48993	493.30081	973.64044	-1202.07251	504.74292	962.68085	-1016.73193	703.97089	1023.43231	-1129.59033	712.86414	1028.91504	-885.24506	477.30334	675.54138	-926.63965	426.63730	486.16302	-939.37756	424.55963	292.09760	-972.18707	348.54684	81.17788	-1031.21948	365.41934	49.41904	-939.20563	196.99670	84.97861	-1263.11670	650.09302	673.02045	-1226.14233	709.06958	468.83969	-1237.81030	796.08252	301.75586	-1207.14514	857.86884	115.14410	-1154.47241	904.08771	65.80216	-1218.12183	714.57654	41.30515	-1067.06873	591.43805	1795.23083	-3360.32227	2845.27539	1034.45093			 
38	0.370	-981.45105	470.34949	1730.27283	-1125.15393	470.40375	1720.32483	-976.35706	595.25146	1645.92944	-1120.47351	607.11420	1633.35864	-1052.99438	643.29987	1511.23364	-1068.73865	700.32007	1241.68762	-1042.45422	501.95132	1442.85950	-1059.02087	454.16083	1269.25049	-1126.12134	701.72577	1345.65295	-873.66498	572.36572	1481.03650	-779.57745	633.38672	1300.97559	-745.99554	675.12268	1174.49048	-708.26874	709.66418	1052.30017	-709.20959	697.65637	911.25238	-681.76935	741.34656	935.59454	-664.06696	744.51294	871.34961	-1232.03772	569.30475	1488.11584	-1341.75586	548.74390	1314.83899	-1379.89771	479.55835	1185.24109	-1395.27405	388.78290	1103.64465	-1370.92407	280.24576	1027.15540	-1407.93274	312.71951	999.05591	-1409.47681	245.93011	974.17059	-943.11700	477.61172	970.66895	-1202.56934	490.98697	960.51727	-1016.04614	688.96716	1020.62555	-1128.44055	698.82007	1025.99927	-884.67896	465.19580	671.43256	-926.10236	411.66263	483.33389	-937.45215	402.18845	289.92352	-969.09650	318.00369	81.57828	-1028.29517	333.51352	48.39476	-937.03961	166.21056	91.05708	-1263.64648	640.40912	672.44855	-1226.19153	701.63739	468.94321	-1237.77686	791.62921	303.35849	-1207.37781	856.51904	117.71868	-1154.66284	903.37256	69.33701	-1218.40210	714.37555	41.25773	-1067.04663	577.57941	1792.81665	-3360.34692	2845.30786	1034.38928			 
39	0.380	-981.33136	456.36163	1728.45874	-1125.07080	456.46350	1718.23267	-976.13721	581.24103	1644.04956	-1119.92517	593.03760	1631.10205	-1052.49097	629.28302	1508.96619	-1067.90088	685.92133	1239.38257	-1041.77551	487.72372	1440.74414	-1058.63550	439.56165	1267.36328	-1124.85413	687.38391	1343.14697	-873.02692	558.39050	1478.76025	-779.78534	620.67145	1298.62183	-746.91589	663.94598	1173.29541	-707.16290	703.15527	1053.74390	-704.52917	696.21301	912.26306	-678.91022	739.51904	939.10986	-659.34875	746.14679	875.63495	-1231.39429	554.93213	1485.88281	-1341.06921	533.33069	1313.03625	-1380.41504	462.92017	1184.50732	-1395.05286	369.84183	1105.23474	-1369.93677	259.42847	1031.98340	-1406.93823	290.83636	1002.83496	-1408.15796	223.42747	980.26471	-942.97913	461.49402	968.21301	-1202.98718	476.76779	958.61115	-1015.20831	673.73041	1018.00458	-1127.14270	684.67517	1023.33484	-883.41376	453.74438	667.97937	-925.33881	396.21362	480.99036	-935.21112	381.02115	288.18301	-965.93658	290.80869	81.97633	-1024.25110	306.30865	47.72951	-936.56714	138.58557	95.92931	-1264.13916	630.08423	671.93530	-1226.68591	693.20551	469.06055	-1237.90686	786.38593	305.17480	-1207.77686	854.84711	120.79794	-1155.01221	902.16962	73.43035	-1218.77649	714.13971	41.45355	-1067.14697	563.65802	1790.86902	-3357.38013	2845.97925	1034.62585			 
40	0.390	-980.96295	442.54391	1726.92883	-1124.80457	442.55322	1716.20923	-975.65363	567.18127	1642.04407	-1118.97266	578.98352	1628.78491	-1051.76685	615.22925	1506.86499	-1066.85461	671.36340	1237.14929	-1041.02393	473.37857	1438.95325	-1058.08875	424.84064	1265.74207	-1123.81909	673.11200	1340.98792	-872.14685	544.38306	1476.60962	-779.80829	607.84369	1296.29004	-747.95691	652.09790	1171.95911	-706.66357	695.85718	1055.35632	-700.00012	694.26630	913.82489	-676.44464	736.52362	942.50183	-655.53876	746.62866	880.22345	-1230.62244	540.61743	1483.83594	-1340.46948	518.33929	1311.41248	-1380.50159	447.01636	1183.70496	-1394.58801	351.80557	1106.77490	-1368.85913	239.58667	1036.77686	-1405.79492	269.98740	1006.53168	-1406.69934	201.85081	986.17743	-943.02356	445.11896	966.42047	-1203.35266	462.30707	956.98724	-1014.02094	658.14471	1015.59924	-1125.64502	669.72968	1020.83325	-881.69678	441.00284	665.74402	-924.48999	380.58884	478.96103	-932.27045	361.28250	286.82452	-962.66156	267.02658	82.08221	-1019.95624	283.34839	46.53172	-937.49707	114.28443	99.19228	-1264.59741	619.23462	671.67108	-1227.23999	683.75867	469.25241	-1237.92004	780.49878	307.21759	-1208.40869	852.68353	124.30623	-1155.54712	900.84717	78.41991	-1219.16650	713.82513	41.49178	-1067.32373	549.68823	1788.71155	-3357.37280	2845.96094	1034.32690			 
